<svg xmlns="http://www.w3.org/2000/svg" viewBox="0 0 512 512">
  <defs>
    <radialGradient id="paper" cx="50%" cy="40%" r="65%">
      <stop offset="0%" stop-color="#FBF4E0"/>
      <stop offset="100%" stop-color="#F0E5C4"/>
    </radialGradient>
    <radialGradient id="poo" cx="40%" cy="38%" r="68%">
      <stop offset="0%" stop-color="#A47551"/>
      <stop offset="55%" stop-color="#7B4F2E"/>
      <stop offset="100%" stop-color="#4F2F18"/>
    </radialGradient>
  </defs>
  <rect width="512" height="512" fill="url(#paper)"/>
  <g transform="translate(256 286)">
    <ellipse cx="0" cy="155" rx="150" ry="22" fill="#2D1B0E" opacity="0.18"/>
    <path fill="url(#poo)" d="
      M -150 138
      C -160 92, -110 60, -120 26
      C -134 -22, -78 -38, -60 -10
      C -52 -52, 18 -56, 30 -22
      C 48 -86, 130 -54, 110 0
      C 138 12, 142 60, 110 80
      C 148 110, 110 158, 80 142
      C 80 168, -50 182, -60 158
      C -100 174, -148 174, -150 138 Z"/>
    <ellipse cx="-50" cy="20" rx="20" ry="22" fill="#FFFFFF"/>
    <ellipse cx="-50" cy="22" rx="9" ry="10" fill="#1F1410"/>
    <ellipse cx="40" cy="20" rx="20" ry="22" fill="#FFFFFF"/>
    <ellipse cx="40" cy="22" rx="9" ry="10" fill="#1F1410"/>
    <path d="M -28 78 Q -2 96 22 78" stroke="#1F1410" stroke-width="9" stroke-linecap="round" fill="none"/>
  </g>
</svg>
