<svg xmlns="http://www.w3.org/2000/svg" viewBox="0 0 1200 630">
  <defs>
    <linearGradient id="bg" x1="0" x2="0" y1="0" y2="1">
      <stop offset="0%" stop-color="#FBF4E0"/>
      <stop offset="100%" stop-color="#F0E5C4"/>
    </linearGradient>
    <radialGradient id="poo" cx="40%" cy="38%" r="68%">
      <stop offset="0%" stop-color="#A47551"/>
      <stop offset="55%" stop-color="#7B4F2E"/>
      <stop offset="100%" stop-color="#4F2F18"/>
    </radialGradient>
  </defs>
  <rect width="1200" height="630" fill="url(#bg)"/>
  <text x="80" y="180" font-size="64" font-family="-apple-system, PingFang SC, system-ui, sans-serif" font-weight="800" fill="#2D1B0E">拉啥 · LASA</text>
  <text x="80" y="260" font-size="44" font-family="-apple-system, PingFang SC, system-ui, sans-serif" font-weight="600" fill="#5C3A1D">告诉我今天吃了啥</text>
  <text x="80" y="320" font-size="44" font-family="-apple-system, PingFang SC, system-ui, sans-serif" font-weight="600" fill="#5C3A1D">我猜你明天拉啥 💩</text>
  <text x="80" y="430" font-size="22" font-family="-apple-system, PingFang SC, system-ui, sans-serif" fill="#9A7C5C">基于「碳水→量、蛋白质→形、脂肪→质」伪科学理论</text>
  <text x="80" y="466" font-size="22" font-family="-apple-system, PingFang SC, system-ui, sans-serif" fill="#9A7C5C">仅供娱乐 · 不构成医学建议</text>
  <g transform="translate(950 320)">
    <ellipse cx="0" cy="190" rx="210" ry="32" fill="#2D1B0E" opacity="0.16"/>
    <path fill="url(#poo)" transform="scale(1.3)" d="
      M -150 138
      C -160 92, -110 60, -120 26
      C -134 -22, -78 -38, -60 -10
      C -52 -52, 18 -56, 30 -22
      C 48 -86, 130 -54, 110 0
      C 138 12, 142 60, 110 80
      C 148 110, 110 158, 80 142
      C 80 168, -50 182, -60 158
      C -100 174, -148 174, -150 138 Z"/>
    <ellipse cx="-65" cy="26" rx="26" ry="28" fill="#FFFFFF"/>
    <ellipse cx="-65" cy="29" rx="12" ry="13" fill="#1F1410"/>
    <ellipse cx="52" cy="26" rx="26" ry="28" fill="#FFFFFF"/>
    <ellipse cx="52" cy="29" rx="12" ry="13" fill="#1F1410"/>
    <path d="M -36 100 Q -3 124 28 100" stroke="#1F1410" stroke-width="11" stroke-linecap="round" fill="none"/>
  </g>
</svg>
